<?xml version="1.0" encoding="utf-8"?>
<svg xmlns="http://www.w3.org/2000/svg" xmlns:xlink="http://www.w3.org/1999/xlink" version= "1.1" width="1539px" height="1099px" viewBox="-230 511 1539 1099">
<g id="layer1">
<g style="fill:rgb(163,218,215); fill-opacity:1.0; stroke-linejoin: miter">
<path d="M-230.001,510.65262C-230.09286,510.65262,-230.18097,510.68915,-230.24593,510.7541C-230.31088,510.81903,-230.34737,510.90714,-230.34737,510.999L-230.34636,1610.0C-230.34636,1610.1913,-230.19128,1610.3463,-230.0,1610.3463L1309.001,1610.3473C1309.0929,1610.3473,1309.1809,1610.3108,1309.2458,1610.2458C1309.3108,1610.1809,1309.3473,1610.0929,1309.3473,1610.001L1309.3463,511.0C1309.3463,510.80872,1309.1913,510.65363,1309.0,510.65363L-230.001,510.65262 Z"/>
</g>
<g style="fill:rgb(0,0,0); fill-opacity:0.31764707; stroke-linejoin: miter">
<path d="M1083.4666,1511.0677L1078.7056,1513.4714Q1044.8566,1520.7355,880.6218,1525.0907Q715.2506,1529.4424,491.14996,1528.6199Q277.2751,1527.4702,149.04535,1521.8922Q107.95912,1520.0891,81.360344,1517.9628L59.004807,1515.7769Q40.58181,1513.5205,40.37468,1511.0677Q45.96737,1503.5405,193.13196,1498.5421Q340.2965,1493.5438,561.92065,1493.3539Q783.5447,1493.5438,930.7093,1498.5421Q1077.8738,1503.5405,1083.4666,1511.0677"/>
</g>
<g style="fill:rgb(255,200,166); fill-opacity:1.0; stroke-linejoin: miter">
<path d="M659.6816,1188.5042Q658.4108,1193.3845,656.55255,1199.0322Q656.0814,1200.8616,656.02185,1202.7217Q655.9714,1209.5674,658.77057,1215.2258Q660.70135,1219.0408,664.2314,1220.9463Q667.3984,1222.8203,675.0233,1224.2959Q677.2924,1228.6965,678.6962,1230.0396Q680.26294,1231.6484,682.15356,1231.5298Q683.707,1231.3284,683.3954,1229.7195Q683.2061,1229.052,682.6829,1228.1841L680.2466,1224.4319Q679.81134,1223.6709,679.8662,1223.2327Q679.91254,1222.8911,680.2854,1222.6833Q682.72797,1222.0054,682.8266,1221.6406Q683.4569,1220.8818,683.1859,1219.4758Q682.55096,1216.177,679.1107,1217.8508Q676.82214,1209.1809,677.23975,1206.9768Q677.44226,1205.3652,678.8557,1205.2593Q680.0755,1205.1057,683.39325,1206.4626Q683.59015,1215.0273,685.19293,1218.4829Q687.8155,1224.0203,689.8593,1221.8337Q691.84845,1218.7495,691.2647,1207.623Q690.5832,1198.2432,687.8671,1193.2744Q685.52435,1188.7698,681.32227,1185.8301L659.7256,1188.4985"/>
</g>
<g style="fill:rgb(149,175,212); fill-opacity:1.0; stroke-linejoin: miter">
<path d="M679.9921,1182.4646L657.3885,1180.4304L659.29626,1190.769L681.16125,1186.522L679.9946,1182.4746"/>
</g>
<g style="fill:rgb(245,245,245); fill-opacity:1.0; stroke-linejoin: miter">
<path d="M227.53188,1419.1753C209.03444,1419.1753,194.02763,1404.1685,194.02763,1385.6626L194.02763,849.47186C194.02763,830.966,209.03444,815.96747,227.53188,815.96747L612.9267,815.9655C631.43274,815.96747,646.43097,830.966,646.43097,849.47186L646.43097,1263.9841L484.9012,1419.1753L227.53188,1419.1731 Z"/>
</g>
<g style="fill:rgb(225,225,225); fill-opacity:1.0; stroke-linejoin: miter">
<path d="M646.43744,1263.9841L518.412,1263.9817C499.90616,1263.9841,484.90756,1278.9822,484.90756,1297.488L484.90756,1419.1753L646.43744,1263.9841 Z"/>
</g>
<g style="fill:rgb(201,201,200); fill-opacity:1.0; stroke-linejoin: miter">
<path d="M599.291,1218.2192C599.291,1212.4456,594.60754,1207.7534,588.82526,1207.7534L254.1241,1207.7512C248.35036,1207.7534,243.66682,1212.4456,243.66682,1218.2192L243.66682,1218.2173C243.66682,1223.9932,248.35036,1228.6848,254.1241,1228.6848L588.82526,1228.6829C594.60754,1228.6829,599.291,1223.9932,599.291,1218.2192L599.291,1218.2173 Z"/>
</g>
<g style="fill:rgb(201,201,200); fill-opacity:1.0; stroke-linejoin: miter">
<path d="M599.291,1163.3052C599.291,1157.532,594.60754,1152.8398,588.82526,1152.8398L254.1241,1152.8376C248.35036,1152.8398,243.66682,1157.532,243.66682,1163.3052L243.66682,1163.3037C243.66682,1169.0791,248.35036,1173.7715,254.1241,1173.7715L588.82526,1173.7693C594.60754,1173.7715,599.291,1169.0791,599.291,1163.3052L599.291,1163.3037 Z"/>
</g>
<g style="fill:rgb(201,201,200); fill-opacity:1.0; stroke-linejoin: miter">
<path d="M599.291,1111.0059C599.291,1105.2327,594.60754,1100.5403,588.82526,1100.5403L254.1241,1100.5383C248.35036,1100.5403,243.66682,1105.2327,243.66682,1111.0059L243.66682,1111.0044C243.66682,1116.7886,248.35036,1121.4639,254.1241,1121.4639L588.82526,1121.4612C594.60754,1121.4695,599.291,1116.7859,599.291,1111.0059L599.291,1111.0044 Z"/>
</g>
<g style="fill:rgb(201,201,200); fill-opacity:1.0; stroke-linejoin: miter">
<path d="M599.291,1056.0924C599.291,1050.3192,594.60754,1045.6268,588.82526,1045.6268L254.1241,1045.6249C248.35036,1045.6268,243.66682,1050.3192,243.66682,1056.0924L243.66682,1056.0905C243.66682,1061.8663,248.35036,1066.5585,254.1241,1066.5585L588.82526,1066.556C594.60754,1066.5585,599.291,1061.8663,599.291,1056.0924L599.291,1056.0905 Z"/>
</g>
<g style="fill:rgb(201,201,200); fill-opacity:1.0; stroke-linejoin: miter">
<path d="M429.32706,1011.6445L254.1241,1011.6425C248.35036,1011.6445,243.66682,1006.9521,243.66682,1001.1789C243.66682,995.40497,248.35036,990.7133,254.1241,990.7133L429.32706,990.7109C435.10922,990.7133,439.79294,995.40497,439.79294,1001.1789C439.79294,1006.9521,435.10922,1011.6445,429.32706,1011.6445 Z"/>
</g>
<g style="fill:rgb(201,201,200); fill-opacity:1.0; stroke-linejoin: miter">
<path d="M248.54936,1299.9805L248.54936,1360.594L248.93541,1360.6375L446.38483,1360.594L446.38483,1299.9805L248.54936,1300.0239"/>
</g>
<g style="fill:rgb(0,0,0); fill-opacity:1.0; stroke-linejoin: miter">
<path d="M887.3994,1215.7327L890.63696,1226.6682L898.45337,1224.665L898.4716,1224.6572L896.6281,1212.781L887.4074,1215.73"/>
</g>
<g style="fill:rgb(255,200,166); fill-opacity:1.0; stroke-linejoin: miter">
<path d="M887.3877,1187.4258L870.4475,1195.9026Q870.40405,1207.6465,870.85016,1211.1257Q871.22046,1215.0261,872.6246,1215.8691Q873.1766,1216.8054,881.4065,1217.9944Q886.1902,1218.5955,889.6269,1218.0149Q895.8602,1217.0508,898.8003,1211.5305Q901.677,1205.6472,899.0054,1199.8008Q896.2763,1194.061,887.4279,1187.4565"/>
</g>
<g style="fill:rgb(149,175,212); fill-opacity:1.0; stroke-linejoin: miter">
<path d="M888.44586,1186.5901L867.67847,1194.3242L869.6207,1200.3159L891.13245,1189.4128L888.4553,1186.5999"/>
</g>
<g style="fill:rgb(0,0,0); fill-opacity:1.0; stroke-linejoin: miter">
<path d="M776.308,884.83887Q759.8642,886.9763,751.684,896.70593Q747.4092,901.9279,744.48364,910.98926Q741.249,921.703,742.3238,926.2264Q742.55707,927.1747,743.1659,927.92786L749.28326,943.80347L795.2043,955.798Q805.4899,937.7776,808.27673,928.79614Q811.6344,918.5116,809.67255,911.5005Q807.3238,902.76385,797.5692,894.8838Q784.077,884.8008,776.43176,884.8393"/>
</g>
<g style="fill:rgb(255,200,166); fill-opacity:1.0; stroke-linejoin: miter">
<path d="M754.9594,917.543Q752.72504,917.0403,751.4046,921.874L750.79675,924.10223L750.1432,933.8601L746.6506,934.31604Q747.0376,928.6941,746.4039,926.9823Q745.89453,925.1976,743.4085,924.3337Q741.70447,930.8384,741.6326,932.7312Q741.5817,933.39294,741.6771,934.0399Q742.4182,936.61487,742.3599,937.34155L742.0543,944.5055Q742.0645,946.7081,742.38824,948.0065Q742.4094,948.9343,745.1532,954.43506L745.86816,956.63416Q746.2701,957.5133,747.2367,967.0051Q747.4789,968.6483,747.87036,969.7938Q748.92816,972.7656,751.18896,973.7875L796.31665,962.53076L797.29865,951.9083Q794.7367,948.24536,792.43567,947.73083Q791.58453,947.4845,790.27454,947.58215Q784.91,948.41565,784.97473,948.28687Q783.8214,948.33496,782.95264,947.9503Q782.2598,947.62146,781.71106,947.07983Q778.7884,943.41003,778.178,943.3711Q777.9046,942.85913,772.1066,942.26074Q771.02527,942.0292,770.0227,941.5989Q767.406,940.5592,762.22516,936.6018Q761.0998,926.40717,759.6992,922.99915Q757.83765,918.3239,755.0259,917.5553"/>
</g>
<g style="fill:rgb(149,175,212); fill-opacity:1.0; stroke-linejoin: miter">
<path d="M785.82874,955.552Q780.4114,953.44885,774.977,953.9546Q769.8356,954.24194,759.4933,957.5858L757.3323,967.33545L797.7558,970.47046L798.1531,962.29553Q790.23236,957.1537,785.8666,955.5664"/>
</g>
<g style="fill:rgb(0,0,0); fill-opacity:1.0; stroke-linejoin: miter">
<path d="M771.2644,958.13025Q765.7851,957.8904,761.45233,960.1565Q759.84204,959.19336,750.50446,971.18335L699.6406,994.3533L695.43195,1013.6034L657.1783,1094.6013L650.7485,1184.1931L650.82007,1184.935L682.52924,1185.4475Q680.6766,1145.5618,684.30084,1114.5381L704.4419,1077.0364L686.07404,1205.2476Q697.80334,1214.8135,730.51965,1214.7551Q731.7324,1224.4585,732.9234,1230.1797Q742.3269,1268.8308,743.27374,1280.301Q745.5774,1297.062,745.49963,1334.9685L691.30817,1462.2312L734.5885,1479.5813L751.51355,1432.3599L757.83484,1478.3435L796.99567,1474.7429L787.5758,1422.6738L795.119,1329.3779L811.18445,1287.8989L820.0938,1261.9707Q826.1653,1242.8625,829.0859,1217.6228L839.52185,1216.0901L831.8672,1102.9084L867.5367,1197.3716Q880.2295,1201.6501,890.29596,1186.8721L846.14294,991.56165L801.454,973.9874Q798.93536,966.07336,790.9055,962.6561Q781.7208,958.80383,771.66815,958.14453"/>
</g>
<g style="fill:rgb(0,0,0); fill-opacity:1.0; stroke-linejoin: miter">
<path d="M925.54913,1217.3501L831.3341,1238.3247L839.96985,1339.5027L860.8903,1340.6396L941.1018,1317.0867L925.56366,1217.4443"/>
</g>
<g style="fill:rgb(0,0,0); fill-opacity:1.0; stroke-linejoin: miter">
<path d="M872.0482,1210.7126Q862.2133,1225.8323,861.08484,1230.5654Q859.40405,1235.8999,864.9082,1236.103Q867.5611,1236.148,870.4924,1235.1189Q873.1754,1234.1448,873.45953,1232.9839Q873.5798,1232.6023,873.4971,1232.009Q872.7249,1228.9856,872.77136,1227.9578Q872.7278,1226.3933,873.2251,1224.5522Q874.4482,1219.8257,879.23376,1210.918L872.0807,1210.7129"/>
</g>
<g style="fill:rgb(0,0,0); fill-opacity:1.0; stroke-linejoin: miter">
<path d="M794.2948,1473.0823L761.7311,1474.5813Q757.45013,1490.7029,753.1823,1501.5146Q752.3643,1505.2366,754.70807,1507.2107Q756.80164,1509.1013,763.0797,1510.2312Q768.4518,1511.2646,782.0577,1512.1924L782.9163,1507.2046Q798.6196,1509.4436,804.31067,1509.9434Q810.6367,1510.5728,815.41364,1510.3052Q829.7608,1509.2502,835.65375,1504.5029Q838.3502,1502.259,838.2702,1498.6318Q837.99115,1494.633,835.1682,1492.3411Q833.9096,1491.3503,832.0601,1491.228Q832.02014,1491.0344,825.2488,1491.6702Q823.43567,1491.7214,822.0053,1491.522Q819.2587,1491.1736,816.402,1489.8083Q809.74023,1486.886,794.3005,1473.0869"/>
</g>
<g style="fill:rgb(0,0,0); fill-opacity:1.0; stroke-linejoin: miter">
<path d="M730.54254,1474.3044L694.48,1459.9333L687.7878,1468.9487L684.1222,1467.9761L684.0485,1468.0852Q677.4004,1479.0427,669.708,1497.1765Q695.29205,1508.1003,700.4072,1509.3594Q706.6084,1511.2124,701.52783,1505.7756Q715.50635,1517.3555,731.9904,1520.9893Q758.02216,1526.8501,767.66693,1521.0898Q775.2048,1516.1997,768.98157,1506.9192Q766.81335,1504.1895,764.29236,1504.0542Q763.47375,1503.9617,761.92346,1504.248Q755.7664,1505.8892,754.9483,1505.8433Q752.73535,1506.1077,750.5787,1505.6663Q746.6466,1504.873,742.5915,1501.4099Q734.0309,1493.709,729.05133,1483.7258Q725.9907,1476.7874,730.48016,1474.3423"/>
</g>
<g>
<g style="fill:rgb(0,0,0); fill-opacity:0.7137255; stroke-linejoin: miter">
<path d="M281.44724,893.11066L291.43704,893.11066Q292.05252,893.11066,292.71536,893.2054Q293.37817,893.25275,293.899,893.48944Q294.3724,893.72614,294.70383,894.19965Q295.03525,894.6731,295.03525,895.47797Q295.03525,896.66156,294.18304,897.27704Q293.43283,897.80664,292.43576,897.8426Q292.36316,897.84515,292.28925,897.84515L288.31226,897.8452Q287.89294,897.8452,287.48416,897.8599Q285.95438,897.9151,284.572,898.17664Q282.86758,898.4607,281.44724,899.26556L281.44724,893.11066 Z M461.97397,895.52527L466.75583,904.61554L466.093,904.61554Q465.43613,904.61554,464.8195,904.63776Q461.83633,904.7453,459.7961,905.3731Q457.33417,906.13055,456.15054,906.7461L461.97397,895.52527 Z M276.47598,888.23413L276.47598,912.75885L281.44724,912.75885L281.44724,904.1421Q282.20474,903.76337,282.86758,903.4793Q283.48306,903.24255,284.24057,903.05316Q284.95078,902.8638,285.945,902.7691Q286.13922,902.75934,286.35336,902.75165Q287.18323,902.72174,288.31226,902.72174L288.64368,902.72174L292.43127,908.8766Q293.28348,910.2496,294.1357,911.0545Q294.9879,911.812,295.88748,912.19073Q296.78702,912.5695,297.73392,912.66425Q298.63348,912.7589,299.58038,912.7589L301.7109,912.75885L301.7109,907.5036L300.0065,907.5036Q299.58038,907.5036,299.01224,907.4089Q298.49146,907.3616,297.9233,907.1248Q297.35516,906.9354,296.83438,906.50934Q296.31357,906.0832,295.88748,905.3257L294.3724,902.7691Q297.0711,901.9642,298.5388,900.21246Q300.0065,898.4607,300.0065,895.61993Q300.0065,894.0102,299.43835,892.63727Q298.8702,891.3116,297.8286,890.3173Q296.78702,889.32306,295.36667,888.75494Q293.99368,888.2342,292.28925,888.23413L276.47598,888.23413 Z M311.17993,888.23413L311.17993,912.7589L331.39627,912.75885L331.39627,907.835L316.00912,907.835L316.00912,903.9527Q316.814,903.5266,317.47684,903.2425Q318.13965,902.95844,318.94452,902.8164Q319.7494,902.6744,320.88565,902.57965Q321.01227,902.5742,321.1472,902.56934Q322.17276,902.5324,323.67905,902.53235L327.27725,902.53235L327.27725,897.6558L323.67902,897.6558Q323.00232,897.6558,322.33994,897.6797Q320.9169,897.731,319.56,897.8925Q317.61887,898.1293,316.00912,899.0761L316.00912,893.11066L330.4967,893.11066L330.4967,888.2342L311.17993,888.23413 Z M348.35126,887.4394Q346.62128,887.5018,345.03165,887.9501Q343.18518,888.4709,341.81216,889.46515Q340.43918,890.41205,339.58698,891.7851Q338.7821,893.158,338.7821,894.8151Q338.7821,896.80365,339.5396,898.22394Q340.29715,899.597,341.67014,900.4965Q342.99582,901.3487,344.84225,901.7275Q346.68872,902.10626,348.91394,902.10626Q352.74887,902.10626,354.6427,902.627Q356.48917,903.1479,356.48917,904.8049Q356.48917,906.7934,354.40598,907.78766Q352.56845,908.6646,349.6995,908.76807Q349.31595,908.7819,348.91394,908.7819Q347.25687,908.7819,346.07324,908.3558Q344.88962,907.97705,343.99005,907.3616Q343.13785,906.74603,342.475,906.0359Q341.85953,905.32574,341.29138,904.7576L337.78784,908.3084Q339.8237,910.7231,342.75906,912.1434Q345.64713,913.5164,348.91394,913.5164Q349.33536,913.5164,349.74808,913.5015Q351.8857,913.4245,353.7905,912.94824Q356.06305,912.4274,357.7675,911.33856Q359.42453,910.29694,360.37143,908.63983Q361.31836,907.03015,361.31836,904.80493Q361.31836,903.3372,360.89224,901.9642Q360.46616,900.59125,359.18784,899.5496Q357.90952,898.508,355.4949,897.8925Q353.12766,897.27704,349.24536,897.27704Q347.44626,897.27704,346.35733,897.0877Q345.3157,896.8983,344.7476,896.56683Q344.22678,896.2828,344.0374,895.8093Q343.89536,895.38324,343.89536,894.8151Q343.89536,894.2943,344.3688,893.7735Q344.79492,893.30005,345.5051,892.9213Q346.21527,892.5899,347.11484,892.3532Q347.82242,892.1959,348.56268,892.16925Q348.71396,892.16376,348.8666,892.16376Q350.99713,892.16376,352.89093,892.63727Q354.7374,893.11066,356.15775,894.2943L359.42453,890.50665Q356.7259,888.6602,354.16925,888.04474Q351.6126,887.42926,348.91394,887.42926Q348.63077,887.42926,348.35126,887.4394 Z M369.84048,888.23413L369.84048,912.75885L374.66965,912.75885L374.66965,888.23413L369.84048,888.23413 Z M397.52066,887.4406Q395.10617,887.52765,392.80283,888.2815Q390.19882,889.1337,388.163,890.7907Q386.12717,892.4479,384.8962,894.8625Q383.66525,897.27704,383.66522,900.4018Q383.66522,903.52655,384.8962,905.9886Q386.07983,908.40314,388.11566,910.10754Q390.10416,911.7646,392.70813,912.66425Q395.3121,913.5164,398.10547,913.5164Q398.42578,913.5164,398.74307,913.50494Q401.23978,913.415,403.55014,912.6169Q406.15414,911.76465,408.18997,910.0129L408.18997,898.79205L398.76828,898.79205L400.8515,903.3846L403.36075,903.3846L403.36078,907.3142Q401.13144,908.49445,398.61966,908.585Q398.4109,908.5925,398.20016,908.59247Q396.4484,908.5925,394.744,908.0717Q393.0869,907.59827,391.76126,906.60406Q390.43558,905.6098,389.6307,904.0948Q388.82584,902.5797,388.82584,900.4965Q388.82584,898.4133,389.6307,896.85095Q390.3882,895.33594,391.7139,894.3416Q393.03955,893.3474,394.69662,892.8266Q396.12906,892.41736,397.6677,892.3619Q397.90897,892.3532,398.1528,892.3532Q399.9046,892.35315,401.65634,892.87396Q403.36078,893.3475,404.7338,894.2943L408.00058,890.50665Q405.96475,888.99164,403.4081,888.18677Q400.85147,887.42926,398.1528,887.42926Q397.8358,887.42926,397.52066,887.4406 Z M538.56665,892.4566Q538.80786,892.4479,539.05176,892.4479Q540.8036,892.4478,542.50793,892.9213Q544.16504,893.3475,545.4907,894.3416Q546.81635,895.2886,547.6212,896.8036Q548.426,898.2713,548.42615,900.3071Q548.42615,902.2956,547.6212,903.858Q546.8164,905.37305,545.4907,906.4146Q544.16504,907.45624,542.508,908.02435Q541.0504,908.4825,539.5197,908.53766Q539.31006,908.5452,539.0991,908.5452Q537.30005,908.54517,535.5956,908.0717Q533.93854,907.59827,532.61285,906.60406Q531.2872,905.6098,530.4823,904.0948Q529.6774,902.57965,529.6774,900.4965Q529.6774,898.4133,530.4823,896.89825Q531.2872,895.38324,532.61285,894.389Q533.8912,893.3947,535.5956,892.9213Q537.0281,892.512,538.56665,892.4566 Z M414.8183,888.23413L417.23288,891.8797L417.23288,912.75885L422.10944,912.75885L422.1094,896.8036L435.74478,912.75885L440.62137,912.75885L440.62137,888.23413L435.74478,888.2342L435.74478,905.2784L420.92578,888.2342L414.8183,888.23413 Z M457.85495,887.66595L459.4647,890.7434L447.7231,912.75885L452.8364,912.75885L452.97842,912.4748Q453.26248,912.09607,454.5408,911.4805Q455.77176,910.9124,457.61823,910.3443Q459.41733,909.8235,461.64255,909.4447Q463.3887,909.1475,465.16397,909.0835Q465.65106,909.066,466.14032,909.066L469.0757,909.066L471.01688,912.7589L476.36688,912.75885L463.11026,887.66595L457.85495,887.66595 Z M480.15448,888.23413L480.1545,893.11066L489.05536,893.11066L489.05536,912.75885L493.93192,912.75885L493.93192,893.11066L503.1642,893.11066L503.16418,888.23413L480.15448,888.23413 Z M510.73938,888.23413L510.73938,912.75885L515.5686,912.7589L515.5686,888.2342L510.73938,888.23413 Z M538.41956,887.4406Q536.0051,887.52765,533.7018,888.2815Q531.0978,889.1337,529.0619,890.7908Q527.0261,892.4478,525.79517,894.8624Q524.5642,897.27704,524.5642,900.40186Q524.56415,903.5266,525.79517,905.9885Q526.97876,908.40314,529.0145,910.10754Q531.0031,911.76465,533.60706,912.66425Q536.21106,913.5164,539.0044,913.5164Q539.3153,913.5164,539.62445,913.5053Q542.0929,913.4163,544.4491,912.6169Q547.0531,911.71735,549.0889,910.0129Q551.0774,908.3085,552.30835,905.8465Q553.53937,903.3846,553.5394,900.2598Q553.5393,897.0877,552.30835,894.67303Q551.07745,892.2585,549.0416,890.64874Q547.0531,889.039,544.40173,888.23413Q541.7978,887.42926,539.05176,887.42926Q538.73474,887.42926,538.41956,887.4406 Z M559.45746,888.23413L561.87213,891.8797L561.87213,912.75885L566.74866,912.75885L566.74866,896.8036L580.38403,912.75885L585.26056,912.75885L585.26056,888.23413L580.38403,888.2341L580.38403,905.2784L565.565,888.23413L559.45746,888.23413 Z"/>
</g>
</g>
<g style="fill:rgb(0,0,0); fill-opacity:0.70980394; stroke-linejoin: miter">
<path d="M341.40622,1323.6401C341.5342,1324.0837,341.77292,1324.4924,342.1063,1324.8252L342.1063,1324.8259Q341.52124,1324.242,341.40186,1323.6399 Z M379.79007,1333.7869Q380.14978,1333.7998,380.5568,1333.8987L380.55658,1333.8994C380.37317,1333.8545,380.1887,1333.8291,380.0056,1333.8225C379.1934,1333.7937,378.40924,1334.1279,377.8673,1334.728L377.86728,1334.729Q378.545,1333.7424,379.79007,1333.7869 Z M340.48532,1321.5356Q341.32922,1321.7188,341.3005,1322.8062L341.30048,1322.8076C341.29733,1322.9248,341.30167,1323.043,341.31335,1323.1597L341.30896,1323.1609Q340.71097,1324.3645,338.21533,1327.508L338.21112,1327.509L332.7024,1333.7803L332.7024,1333.7805Q332.59866,1332.4524,332.75424,1330.9209L332.75003,1330.9221Q333.8008,1324.596,340.48077,1321.5356 Z M347.4096,1336.8882Q348.48465,1336.9265,349.35126,1338.1418L349.34995,1338.1436C348.8614,1337.4844,348.10263,1337.0774,347.28052,1337.0359C347.2671,1337.0356,347.25348,1337.0352,347.24005,1337.0347C346.83945,1337.0203,346.44604,1337.0935,346.0849,1337.2437L346.08487,1337.2446Q346.78284,1336.8657,347.4096,1336.8882 Z M315.8873,1311.075C314.89377,1311.0396,313.91495,1311.5466,313.3923,1312.4712Q296.4102,1342.5312,311.73633,1351.1897L311.73648,1351.1909Q312.75714,1351.7664,313.91513,1352.2305L313.91336,1352.2314Q315.39282,1352.854,316.9396,1352.9092Q321.1182,1353.0583,325.78394,1349.0608L325.78302,1349.0613Q328.09198,1347.166,329.99954,1345.189C330.02945,1345.158,330.05832,1345.127,330.08688,1345.094L331.40912,1343.5884L331.41312,1343.5896Q332.9061,1344.9487,334.9209,1345.947C335.07736,1346.0247,335.24115,1346.0867,335.40982,1346.1335Q337.17096,1346.6201,338.82016,1346.6792Q344.535,1346.8833,348.90167,1341.9539L348.89694,1341.9541Q349.0709,1341.8235,349.25192,1341.657L349.25186,1341.6584Q350.47424,1340.5249,356.17004,1333.1489C356.2553,1333.0386,356.33228,1332.9221,356.3998,1332.7998L356.40448,1332.801Q356.21402,1339.0854,356.63968,1343.2488C356.76355,1344.458,357.6668,1345.4431,358.86154,1345.6704C359.00092,1345.697,359.14,1345.7124,359.27863,1345.7173C360.32773,1345.7549,361.32306,1345.1877,361.81754,1344.2341L368.28317,1331.7588L368.27933,1331.7595Q368.35336,1331.6313,368.4234,1331.5178L368.42807,1331.5188Q371.8572,1336.9172,373.7023,1338.6924L373.69757,1338.6929Q375.60034,1340.6799,378.01813,1340.7661Q378.0246,1340.7664,378.03122,1340.7666L378.03256,1340.7683Q379.94766,1340.8296,381.35736,1339.2854L381.35776,1339.2847Q381.71338,1338.8962,382.02515,1338.4019L382.0204,1338.4031Q382.31476,1338.054,382.56027,1337.5786L382.5602,1337.5798Q383.0032,1336.7205,383.94183,1333.8188L383.9467,1333.8198Q385.6395,1336.8623,387.71628,1339.8367L387.71625,1339.8374C388.23117,1340.5732,389.04135,1340.9807,389.87537,1341.0107C390.45068,1341.0312,391.03748,1340.8716,391.54605,1340.5168C392.7915,1339.6467,393.096,1337.9329,392.2262,1336.687Q388.75485,1331.7158,386.4625,1326.5654C386.09814,1325.7458,385.35797,1325.1562,384.47913,1324.9846Q383.9737,1324.885,383.5229,1324.8689Q380.9964,1324.7786,380.19406,1327.2996L380.17844,1327.3506Q378.34644,1333.511,377.7674,1334.8513L377.76245,1334.8523C377.7435,1334.8752,377.72446,1334.8997,377.70593,1334.9246L377.70593,1334.925Q377.66843,1334.8855,377.62875,1334.843C377.59247,1334.8032,377.55472,1334.7654,377.51624,1334.7283Q375.93127,1333.2034,372.19373,1327.1694C372.11185,1327.0371,372.0191,1326.9116,371.91608,1326.7952L371.9117,1326.7903L371.91168,1326.7913Q370.5868,1325.2861,368.832,1325.2234Q368.3733,1325.207,367.8851,1325.2896L367.88123,1325.2905Q366.84964,1325.4504,365.91565,1326.1289L365.91562,1326.1296Q364.67053,1327.0337,363.5313,1328.981C363.50754,1329.0212,363.48474,1329.063,363.4632,1329.1045L361.93042,1332.062L361.93036,1332.0632Q362.1227,1326.8384,362.74152,1320.0757C362.8614,1318.7659,362.03607,1317.554,360.7729,1317.1848C360.54968,1317.1201,360.3239,1317.0845,360.10022,1317.0764C359.05682,1317.0393,358.0556,1317.6013,357.5585,1318.5642L351.65457,1330.0032L351.64987,1330.0034Q346.79977,1336.2788,345.67807,1337.4575L345.67386,1337.458C345.4364,1337.6074,345.22098,1337.794,345.0363,1338.0134Q342.30646,1341.2634,338.79962,1341.1384Q337.98825,1341.1094,337.13553,1340.8999L337.13116,1340.9004Q335.95145,1340.2764,335.0831,1339.4104L335.0787,1339.4114L342.4357,1331.0332C342.46555,1330.9995,342.49457,1330.9641,342.52304,1330.929Q346.0542,1326.4819,346.69183,1324.4973L346.69186,1324.4966Q347.0918,1323.2537,346.80362,1322.2651L346.7989,1322.2661Q346.63385,1316.2253,340.43042,1316.0039Q340.37186,1316.002,340.31238,1316.0002L340.31232,1316.002Q340.1474,1315.9963,339.977,1315.9973C339.61374,1315.9983,339.25464,1316.0723,338.92004,1316.2131Q328.91013,1320.4404,327.322,1330.0303C327.31375,1330.0801,327.3069,1330.1306,327.3014,1330.1814Q326.7502,1335.24,328.19586,1338.9167L328.19113,1338.9172L325.9539,1341.4641L325.94946,1341.4658Q324.29993,1343.1621,322.2944,1344.8076L322.2442,1344.8499Q319.20993,1347.4622,317.0965,1347.3867Q316.52676,1347.3665,316.02377,1347.1506L315.96268,1347.126Q315.1444,1346.7971,314.44202,1346.3999L314.44232,1346.4009Q303.90506,1340.4473,318.18134,1315.1765C318.92865,1313.8547,318.4621,1312.1768,317.13928,1311.4297C316.74265,1311.2048,316.31387,1311.0901,315.8873,1311.075 Z"/>
</g>
</g>
</svg>